<svg width="8" height="8" viewBox="0 0 8 8" fill="none" xmlns="http://www.w3.org/2000/svg">
<path d="M7.4796 0.445434C7.72135 0.663697 7.8752 0.861173 7.94113 1.03786C8.01805 1.20416 8.01805 1.37565 7.94113 1.55234C7.86421 1.71863 7.71037 1.91611 7.4796 2.14477L2.23792 7.50779C2.02913 7.71566 1.83683 7.85598 1.66101 7.92873C1.48518 8.01188 1.30387 8.02227 1.11706 7.95991C0.941237 7.89755 0.737943 7.76243 0.507177 7.55457C0.276412 7.3363 0.122568 7.14402 0.045646 6.97773C-0.0202871 6.80104 -0.0147927 6.62955 0.0621292 6.46325C0.15004 6.28656 0.298389 6.09428 0.507177 5.88641L5.74886 0.507795C6.08951 0.185598 6.37522 0.0193023 6.60599 0.0089087C6.84774 -0.011878 7.13895 0.133631 7.4796 0.445434ZM0.507177 0.445434C0.737943 0.237565 0.941237 0.10245 1.11706 0.0400892C1.30387 -0.0222718 1.48518 -0.0118783 1.66101 0.0712696C1.83683 0.144024 2.02913 0.289532 2.23792 0.507795L7.4796 5.88641C7.69938 6.10468 7.84773 6.29696 7.92465 6.46325C8.01256 6.62955 8.02355 6.80104 7.95761 6.97773C7.89168 7.14402 7.73234 7.3363 7.4796 7.55457C7.24883 7.76243 7.04554 7.89755 6.86972 7.95991C6.6939 8.02227 6.51808 8.01188 6.34225 7.92873C6.17742 7.85598 5.97962 7.71566 5.74886 7.50779L0.507177 2.14477C0.287401 1.9265 0.139051 1.73422 0.0621292 1.56793C-0.0147927 1.39124 -0.0202871 1.21455 0.045646 1.03786C0.122568 0.861173 0.276412 0.663697 0.507177 0.445434Z" fill="currentColor"/>
</svg>
